#!OML:ASF F:\VICON\USERDATA\INSTALL\rory3\rory3.ASF
:FULLY-SPECIFIED
:DEGREES
1002
root -0.197679 18.3445 -5.2581 -1.29165 3.04376 4.43743
lowerback 19.0843 -5.24982 -9.88481
upperback 4.75778 -8.80923 -0.994841
thorax -4.08131 -4.2934 6.31384
lowerneck -18.4637 -0.806006 -8.63036
upperneck 6.50734 0.145619 7.26258
head 4.91638 0.355213 3.70589
rclavicle -1.21259e-014 -1.35174e-014
rhumerus -36.2365 -5.93741 -56.7692
rradius 65.8862
rwrist -3.57027
rhand -30.2541 11.2966
rfingers 7.12502
rthumb -3.56285 -18.6534
lclavicle -1.21259e-014 -1.35174e-014
lhumerus 42.9906 6.8288 83.3763
lradius 139.201
lwrist 20.9611
lhand -35.6965 10.2678
lfingers 7.12502
lthumb -8.81691 40.0636
rfemur -51.0576 6.07628 4.43818
rtibia 87.6779
rfoot -1.89143 -17.7041
rtoes 1.26425
lfemur -15.5835 7.96744 -25.4543
ltibia 33.646
lfoot -14.7755 6.10781
ltoes 2.93855
1003
root -0.157135 18.3551 -5.28499 -1.1848 3.25219 4.30449
lowerback 19.272 -5.43168 -9.84221
upperback 5.15263 -9.02488 -0.981059
thorax -3.71698 -4.43624 6.33083
lowerneck -19.3785 -0.871262 -8.59216
upperneck 6.58843 0.116577 7.28264
head 5.08768 0.357679 3.71315
rclavicle 3.71727e-014 -1.66979e-014
rhumerus -35.7712 -6.54293 -56.8626
rradius 65.0438
rwrist -3.41157
rhand -30.3754 11.5887
rfingers 7.12502
rthumb -3.67998 -18.3593
lclavicle 3.71727e-014 -1.66979e-014
lhumerus 43.5132 6.23711 83.8572
lradius 139.803
lwrist 20.9178
lhand -35.8566 9.88377
lfingers 7.12502
lthumb -8.97143 39.673
rfemur -52.4902 5.71059 4.40391
rtibia 89.2032
rfoot -1.94267 -17.4643
rtoes 1.02782
lfemur -15.6763 8.06516 -25.4817
ltibia 33.4162
lfoot -14.5287 5.81479
ltoes 3.07359
1004
root -0.116606 18.3658 -5.31119 -1.06 3.52674 4.34888
lowerback 19.4529 -5.59476 -9.95453
upperback 5.38381 -9.26137 -1.04335
thorax -3.51117 -4.57216 6.36644
lowerneck -19.6536 -0.877489 -8.37221
upperneck 6.49606 0.0915969 7.16107
head 5.10343 0.347384 3.63722
rclavicle -1.3418e-013 4.05521e-014
rhumerus -35.6853 -7.06841 -56.9079
rradius 64.275
rwrist -3.33131
rhand -30.485 11.7362
rfingers 7.12502
rthumb -3.78582 -18.2099
lclavicle -1.3418e-013 4.05521e-014
lhumerus 43.7143 5.45943 84.271
lradius 140.37
lwrist 20.8215
lhand -35.8063 9.92124
lfingers 7.12502
lthumb -8.92286 39.7126
rfemur -53.9475 5.18204 4.17029
rtibia 90.7602
rfoot -1.91648 -17.1011
rtoes 0.923574
lfemur -15.7433 8.01327 -25.7037
ltibia 33.1199
lfoot -14.3134 5.52284
ltoes 4.05367
1005
root -0.079107 18.3783 -5.3375 -0.926247 3.72447 4.54967
lowerback 19.6616 -5.72162 -10.2774
upperback 5.62305 -9.49353 -1.11647
thorax -3.27606 -4.70893 6.50404
lowerneck -20.1402 -0.883724 -8.18615
upperneck 6.48547 0.0890951 7.02303
head 5.17558 0.3485 3.56656
rclavicle 1.08536e-013 -5.56597e-015
rhumerus -35.4496 -7.56484 -56.9535
rradius 63.4892
rwrist -3.27208
rhand -30.7262 11.3636
rfingers 7.12502
rthumb -4.01872 -18.5783
lclavicle 1.08536e-013 -5.56597e-015
lhumerus 44.006 4.65324 84.6095
lradius 140.778
lwrist 20.6329
lhand -35.7082 10.3027
lfingers 7.12502
lthumb -8.82823 40.098
rfemur -55.4799 4.66069 3.76222
rtibia 92.3329
rfoot -2.03937 -16.7075
rtoes 0.897072
lfemur -15.7671 7.99888 -26.0878
ltibia 32.7802
lfoot -14.0902 5.29207
ltoes 4.73141
1006
root -0.0450771 18.3881 -5.36857 -0.793938 3.84599 4.74317
lowerback 20.024 -5.81975 -10.6106
upperback 5.81527 -9.71189 -1.19456
thorax -3.17044 -4.82878 6.66448
lowerneck -20.5414 -0.874744 -8.18631
upperneck 6.43525 0.119614 7.1337
head 5.21986 0.378264 3.60881
rclavicle -4.17448e-015 -1.11319e-014
rhumerus -35.326 -7.90607 -57.0232
rradius 62.8196
rwrist -3.40746
rhand -31.1978 11.8007
rfingers 7.12502
rthumb -4.47418 -18.1321
lclavicle -4.17448e-015 -1.11319e-014
lhumerus 44.2394 3.74536 84.7854
lradius 141.063
lwrist 20.3942
lhand -35.8049 10.3857
lfingers 7.12502
lthumb -8.92151 40.1771
rfemur -57.1172 4.19725 3.37131
rtibia 93.9423
rfoot -2.42447 -16.346
rtoes 0.915892
lfemur -15.8149 8.07184 -26.4463
ltibia 32.4332
lfoot -13.8268 5.0136
ltoes 4.91193
1007
root -0.0135445 18.3954 -5.39995 -0.677276 3.8837 4.79426
lowerback 20.4318 -5.89011 -10.8488
upperback 5.8931 -9.88924 -1.21164
thorax -3.22354 -4.91406 6.85046
lowerneck -20.4308 -0.869707 -8.31155
upperneck 6.14037 0.142644 7.28659
head 5.10825 0.397363 3.67627
rclavicle -9.93923e-014 -5.48646e-014
rhumerus -35.4846 -8.01704 -57.0027
rradius 62.281
rwrist -3.62462
rhand -31.6138 12.5969
rfingers 7.12502
rthumb -4.87583 -17.327
lclavicle -9.93923e-014 -5.48646e-014
lhumerus 44.2246 2.81709 84.9565
lradius 141.269
lwrist 20.2693
lhand -35.9797 10.0438
lfingers 7.12502
lthumb -9.09023 39.8279
rfemur -58.8099 3.83497 3.18665
rtibia 95.5571
rfoot -2.85398 -15.9642
rtoes 0.524799
lfemur -15.8827 8.20013 -26.6281
ltibia 32.0942
lfoot -13.566 4.7205
ltoes 5.23622
1008
root 0.0157893 18.4022 -5.42871 -0.598828 3.7838 4.74506
lowerback 20.9228 -6.03253 -11.2808
upperback 5.64492 -10.2293 -1.01646
thorax -3.56674 -5.04925 7.43597
lowerneck -19.318 -0.641743 -8.74235
upperneck 5.65279 0.487508 7.26991
head 4.75343 0.539178 3.75559
rclavicle -5.32743e-014 3.4191e-014
rhumerus -35.7014 -7.30132 -56.7635
rradius 61.6998
rwrist -3.63972
rhand -31.3891 12.3993
rfingers 7.12502
rthumb -4.65885 -17.5295
lclavicle -5.32743e-014 3.4191e-014
lhumerus 43.5372 2.41767 85.1102
lradius 141.551
lwrist 20.1329
lhand -36.256 10.8265
lfingers 7.12502
lthumb -9.35679 40.5989
rfemur -60.5301 3.65151 3.15747
rtibia 97.1401
rfoot -3.33086 -15.6709
rtoes -0.29685
lfemur -15.9283 8.37596 -26.6772
ltibia 31.8083
lfoot -13.3833 4.48165
ltoes 5.62033
1009
root 0.0428273 18.4141 -5.45843 -0.549109 3.74415 4.71854
lowerback 21.0962 -5.94469 -11.1573
upperback 6.29874 -10.0637 -1.25185
thorax -3.03668 -5.02722 7.05344
lowerneck -21.0724 -0.918681 -8.25356
upperneck 5.90873 0.118462 7.27952
head 5.13559 0.397614 3.66578
rclavicle -8.26944e-014 -1.90833e-014
rhumerus -35.3724 -8.81166 -56.9653
rradius 61.0142
rwrist -3.41322
rhand -30.9733 12.264
rfingers 7.12502
rthumb -4.25732 -17.6732
lclavicle -8.26944e-014 -1.90833e-014
lhumerus 44.6371 0.832995 84.9014
lradius 141.749
lwrist 20.208
lhand -36.5382 13.1918
lfingers 7.12502
lthumb -9.62915 42.9517
rfemur -62.1838 3.3958 3.13523
rtibia 98.6942
rfoot -3.96989 -15.3634
rtoes -1.24438
lfemur -15.9382 8.56149 -26.7409
ltibia 31.5648
lfoot -13.1871 4.1909
ltoes 5.91724
